<svg width="86" height="86" viewBox="0 0 86 86" fill="none" xmlns="http://www.w3.org/2000/svg">
<path d="M38.5629 83.7268L1.72409 46.888C-0.574696 44.5892 -0.574696 40.8619 1.72409 38.5631L38.5629 1.72409C40.8617 -0.574697 44.589 -0.574697 46.8878 1.72409L83.7266 38.5629C86.0254 40.8617 86.0254 44.589 83.7266 46.8878L46.888 83.7268C44.589 86.0256 40.8619 86.0256 38.5629 83.7268Z" fill="#008080"/>
<path d="M35.0447 39.9667C34.9679 39.7897 34.7202 39.7897 34.6435 39.9608C29.7355 50.821 44.4122 59.0324 51.3141 49.0748C51.3671 48.998 51.432 48.9804 51.5146 49.0335H51.5205C51.5794 49.0748 51.5913 49.122 51.5618 49.1868C49.7449 52.8028 45.8455 55.0857 41.8874 54.6847C33.1745 53.7999 29.1219 44.9395 33.6405 37.3946C33.7525 37.2117 33.7762 37.0112 33.7173 36.8046C31.8886 30.1565 32.626 23.8622 35.9354 17.9278C36.2953 17.273 36.7376 16.6772 37.2509 16.1285C41.9759 11.0849 44.955 18.6002 45.7513 21.9214C45.769 21.9922 45.7454 22.0453 45.6805 22.0747C45.5919 22.1219 45.4799 22.0806 45.4445 21.9862C44.6953 20.2341 42.2413 14.229 39.5395 15.8276C38.3715 16.5237 37.4336 18.022 36.8673 19.2255C34.667 23.9505 34.1655 29.1477 35.3513 34.8224C35.4103 35.1056 35.5518 35.1587 35.776 34.9758C38.8612 32.4923 43.7457 31.1236 47.2792 33.4361C50.4825 35.5303 51.2551 40.0018 49.4382 43.199C48.1817 45.411 46.1878 46.5673 43.4684 46.6617C39.4453 46.7977 36.5726 43.4648 35.0447 39.9667ZM47.6981 37.7664C45.9873 32.823 39.4394 34.5042 36.5902 37.2649C36.4249 37.4241 36.3897 37.607 36.4782 37.8195C37.9117 41.0934 40.3184 44.9749 44.3534 44.1727C47.291 43.5886 48.6301 40.468 47.6981 37.7664Z" fill="white"/>
<path d="M61.3308 57.9233L24.1257 62.5009C23.9074 62.5305 23.8189 62.4359 23.8484 62.2178L25.1049 52.9031L28.6207 28.1981C28.6442 28.0448 28.7327 27.968 28.886 27.968L31.5643 27.9917C31.6822 27.9974 31.7354 28.0567 31.7295 28.1687L31.7176 28.3457C31.7176 28.3692 31.7059 28.3812 31.6765 28.3812C30.8858 28.3516 30.1603 28.387 29.5056 28.4814C29.2757 28.511 29.1458 28.6465 29.1282 28.8826L26.8982 53.1984L26.2492 59.7286C26.2316 59.8996 26.3082 59.9705 26.4734 59.947L58.517 55.8295C58.6999 55.806 58.8238 55.6231 58.7767 55.4459L58.2102 53.1866L52.152 26.6351C52.1284 26.5112 52.0222 26.4228 51.8983 26.4109C47.5564 26.0925 43.1912 25.8329 38.8024 25.6381C38.7377 25.6381 38.7082 25.6026 38.7023 25.538C38.7019 25.5328 38.7018 25.5277 38.7018 25.5227C38.7018 25.4495 38.7425 25.4076 38.8143 25.4021C39.298 25.3371 39.77 25.2958 40.2361 25.2842C44.2652 25.172 48.4473 25.1368 52.7833 25.1663C53.0134 25.1663 53.155 25.2784 53.2139 25.4967L60.3224 52.6147L61.5904 57.5461C61.6492 57.77 61.5607 57.8937 61.3308 57.9233Z" fill="white"/>
</svg>
