<svg width="252" height="86" viewBox="0 0 252 86" fill="none" xmlns="http://www.w3.org/2000/svg">
<g clip-path="url(#clip0_36_7)">
<path d="M40.8049 83.7268L1.82433 46.888C-0.608109 44.5892 -0.608109 40.8619 1.82433 38.5631L40.8049 1.72409C43.2374 -0.574697 47.1814 -0.574697 49.6138 1.72409L88.5944 38.5629C91.0269 40.8617 91.0269 44.589 88.5944 46.8878L49.614 83.7268C47.1814 86.0256 43.2376 86.0256 40.8049 83.7268Z" fill="#008080"/>
<path d="M37.0822 39.9667C37.0009 39.7897 36.7388 39.7897 36.6577 39.9608C31.4643 50.821 46.9943 59.0324 54.2975 49.0748C54.3536 48.998 54.4223 48.9804 54.5097 49.0335H54.5159C54.5782 49.0748 54.5908 49.122 54.5596 49.1868C52.6371 52.8028 48.511 55.0857 44.3227 54.6847C35.1033 53.7999 30.8151 44.9395 35.5964 37.3946C35.7149 37.2117 35.74 37.0112 35.6776 36.8046C33.7426 30.1565 34.5229 23.8622 38.0247 17.9278C38.4055 17.273 38.8735 16.6772 39.4167 16.1285C44.4164 11.0849 47.5687 18.6002 48.4113 21.9214C48.43 21.9922 48.405 22.0453 48.3364 22.0747C48.2426 22.1219 48.1241 22.0806 48.0867 21.9862C47.2939 20.2341 44.6972 14.229 41.8383 15.8276C40.6024 16.5237 39.61 18.022 39.0108 19.2255C36.6826 23.9505 36.1519 29.1477 37.4066 34.8224C37.4691 35.1056 37.6188 35.1587 37.856 34.9758C41.1206 32.4923 46.2891 31.1236 50.028 33.4361C53.4176 35.5303 54.2351 40.0018 52.3125 43.199C50.983 45.411 48.8732 46.5673 45.9957 46.6617C41.7387 46.7977 38.6989 43.4648 37.0822 39.9667ZM50.4713 37.7664C48.661 32.823 41.7324 34.5042 38.7176 37.2649C38.5427 37.4241 38.5054 37.607 38.5991 37.8195C40.1159 41.0934 42.6625 44.9749 46.9321 44.1727C50.0405 43.5886 51.4575 40.468 50.4713 37.7664Z" fill="white"/>
<path d="M64.8966 57.9233L25.5284 62.5009C25.2974 62.5305 25.2037 62.4359 25.235 62.2178L26.5645 52.9031L30.2847 28.1981C30.3096 28.0448 30.4032 27.968 30.5654 27.968L33.3995 27.9917C33.5242 27.9974 33.5805 28.0567 33.5743 28.1687L33.5617 28.3457C33.5617 28.3692 33.5493 28.3812 33.5182 28.3812C32.6815 28.3516 31.9138 28.387 31.2211 28.4814C30.9778 28.511 30.8403 28.6465 30.8217 28.8826L28.4621 53.1984L27.7753 59.7286C27.7567 59.8996 27.8378 59.9705 28.0126 59.947L61.9192 55.8295C62.1127 55.806 62.2438 55.6231 62.194 55.4459L61.5945 53.1866L55.1841 26.6351C55.1591 26.5112 55.0468 26.4228 54.9157 26.4109C50.3213 26.0925 45.7023 25.8329 41.0584 25.6381C40.9899 25.6381 40.9587 25.6026 40.9525 25.538C40.952 25.5328 40.9519 25.5277 40.9519 25.5227C40.9519 25.4495 40.995 25.4076 41.071 25.4021C41.5828 25.3371 42.0822 25.2958 42.5754 25.2842C46.8388 25.172 51.264 25.1368 55.8521 25.1663C56.0956 25.1663 56.2454 25.2784 56.3078 25.4967L63.8295 52.6147L65.1713 57.5461C65.2335 57.77 65.1398 57.8937 64.8966 57.9233Z" fill="white"/>
</g>
<path d="M108.258 56.468C106.242 56.468 104.472 55.976 102.948 54.992C101.436 54.008 100.26 52.688 99.42 51.032C98.58 49.364 98.16 47.516 98.16 45.488V30.8H102.552V45.488C102.552 46.688 102.774 47.792 103.218 48.8C103.674 49.796 104.322 50.594 105.162 51.194C106.014 51.782 107.046 52.076 108.258 52.076C109.482 52.076 110.514 51.782 111.354 51.194C112.194 50.594 112.83 49.796 113.262 48.8C113.706 47.792 113.928 46.688 113.928 45.488V30.8H118.32V45.488C118.32 47.012 118.08 48.44 117.6 49.772C117.12 51.092 116.436 52.256 115.548 53.264C114.66 54.272 113.598 55.058 112.362 55.622C111.138 56.186 109.77 56.468 108.258 56.468ZM122.066 56V38H126.458V39.602C127.07 38.954 127.802 38.444 128.654 38.072C129.506 37.688 130.424 37.496 131.408 37.496C132.656 37.496 133.802 37.79 134.846 38.378C135.902 38.966 136.742 39.752 137.366 40.736C138.002 39.752 138.842 38.966 139.886 38.378C140.93 37.79 142.076 37.496 143.324 37.496C144.644 37.496 145.838 37.82 146.906 38.468C147.986 39.104 148.844 39.962 149.48 41.042C150.128 42.11 150.452 43.304 150.452 44.624V56H146.06V45.794C146.06 45.098 145.886 44.462 145.538 43.886C145.202 43.298 144.746 42.83 144.17 42.482C143.606 42.122 142.97 41.942 142.262 41.942C141.554 41.942 140.912 42.116 140.336 42.464C139.772 42.8 139.316 43.256 138.968 43.832C138.62 44.408 138.446 45.062 138.446 45.794V56H134.054V45.794C134.054 45.062 133.886 44.408 133.55 43.832C133.214 43.256 132.758 42.8 132.182 42.464C131.606 42.116 130.964 41.942 130.256 41.942C129.56 41.942 128.924 42.122 128.348 42.482C127.772 42.83 127.31 43.298 126.962 43.886C126.626 44.462 126.458 45.098 126.458 45.794V56H122.066ZM167.279 38H171.671V56H167.279L167.081 53.768C166.589 54.572 165.935 55.226 165.119 55.73C164.315 56.222 163.361 56.468 162.257 56.468C160.925 56.468 159.677 56.216 158.513 55.712C157.349 55.208 156.323 54.512 155.435 53.624C154.559 52.736 153.869 51.71 153.365 50.546C152.873 49.382 152.627 48.134 152.627 46.802C152.627 45.518 152.861 44.312 153.329 43.184C153.809 42.056 154.475 41.066 155.327 40.214C156.179 39.362 157.163 38.696 158.279 38.216C159.395 37.736 160.595 37.496 161.879 37.496C163.067 37.496 164.129 37.76 165.065 38.288C166.013 38.816 166.817 39.488 167.477 40.304L167.279 38ZM162.149 52.238C163.085 52.238 163.913 52.004 164.633 51.536C165.353 51.068 165.917 50.438 166.325 49.646C166.733 48.842 166.937 47.96 166.937 47C166.937 46.028 166.733 45.146 166.325 44.354C165.917 43.55 165.347 42.914 164.615 42.446C163.895 41.978 163.073 41.744 162.149 41.744C161.225 41.744 160.379 41.984 159.611 42.464C158.855 42.932 158.249 43.562 157.793 44.354C157.349 45.146 157.127 46.028 157.127 47C157.127 47.972 157.355 48.854 157.811 49.646C158.267 50.438 158.873 51.068 159.629 51.536C160.397 52.004 161.237 52.238 162.149 52.238ZM189.91 42.392L180.856 51.608H189.91V56H174.538V51.608L183.592 42.392H174.538V38H189.91V42.392ZM193.504 38H197.896V56H193.504V38ZM195.736 35.678C195.088 35.678 194.542 35.468 194.098 35.048C193.654 34.616 193.432 34.076 193.432 33.428C193.432 32.792 193.654 32.258 194.098 31.826C194.542 31.394 195.082 31.178 195.718 31.178C196.354 31.178 196.888 31.394 197.32 31.826C197.764 32.258 197.986 32.792 197.986 33.428C197.986 34.076 197.77 34.616 197.338 35.048C196.906 35.468 196.372 35.678 195.736 35.678ZM218.57 44.624V56H214.178V45.776C214.178 45.068 214.004 44.426 213.656 43.85C213.308 43.262 212.84 42.8 212.252 42.464C211.676 42.116 211.034 41.942 210.326 41.942C209.618 41.942 208.97 42.116 208.382 42.464C207.806 42.8 207.344 43.262 206.996 43.85C206.66 44.426 206.492 45.068 206.492 45.776V56H202.1L202.082 38H206.474L206.492 39.602C207.104 38.954 207.836 38.444 208.688 38.072C209.54 37.688 210.458 37.496 211.442 37.496C212.75 37.496 213.944 37.82 215.024 38.468C216.104 39.104 216.962 39.962 217.598 41.042C218.246 42.11 218.57 43.304 218.57 44.624ZM235.161 38H239.553V56.342C239.553 57.638 239.289 58.814 238.761 59.87C238.233 60.938 237.513 61.85 236.601 62.606C235.689 63.374 234.645 63.962 233.469 64.37C232.293 64.79 231.057 65 229.761 65C228.501 65 227.289 64.742 226.125 64.226C224.961 63.71 223.929 63.002 223.029 62.102C222.141 61.214 221.463 60.2 220.995 59.06L225.009 57.242C225.249 57.902 225.609 58.478 226.089 58.97C226.581 59.474 227.145 59.864 227.781 60.14C228.417 60.428 229.077 60.572 229.761 60.572C230.457 60.572 231.123 60.476 231.759 60.284C232.407 60.092 232.989 59.81 233.505 59.438C234.021 59.078 234.423 58.634 234.711 58.106C235.011 57.59 235.161 57.002 235.161 56.342V53.804C234.597 54.596 233.889 55.238 233.037 55.73C232.185 56.222 231.201 56.468 230.085 56.468C228.789 56.468 227.577 56.222 226.449 55.73C225.321 55.238 224.325 54.56 223.461 53.696C222.609 52.82 221.937 51.812 221.445 50.672C220.965 49.532 220.725 48.308 220.725 47C220.725 45.692 220.965 44.468 221.445 43.328C221.937 42.188 222.609 41.186 223.461 40.322C224.325 39.446 225.321 38.762 226.449 38.27C227.577 37.778 228.789 37.532 230.085 37.532C231.201 37.532 232.185 37.778 233.037 38.27C233.889 38.75 234.597 39.386 235.161 40.178V38ZM230.139 52.238C231.063 52.238 231.879 52.004 232.587 51.536C233.307 51.056 233.871 50.42 234.279 49.628C234.687 48.824 234.891 47.948 234.891 47C234.891 46.04 234.681 45.164 234.261 44.372C233.853 43.58 233.289 42.944 232.569 42.464C231.861 41.984 231.051 41.744 230.139 41.744C229.239 41.744 228.417 41.984 227.673 42.464C226.929 42.932 226.335 43.562 225.891 44.354C225.447 45.146 225.225 46.028 225.225 47C225.225 47.972 225.447 48.854 225.891 49.646C226.335 50.438 226.929 51.068 227.673 51.536C228.417 52.004 229.239 52.238 230.139 52.238Z" fill="#008080"/>
<defs>
<clipPath id="clip0_36_7">
<rect width="91" height="86" fill="white"/>
</clipPath>
</defs>
</svg>
